<?xml version="1.0" encoding="UTF-8" standalone="no"?>
<!-- Created with Inkscape (http://www.inkscape.org/) -->

<svg
   xmlns:dc="http://purl.org/dc/elements/1.1/"
   xmlns:cc="http://creativecommons.org/ns#"
   xmlns:rdf="http://www.w3.org/1999/02/22-rdf-syntax-ns#"
   xmlns:svg="http://www.w3.org/2000/svg"
   xmlns="http://www.w3.org/2000/svg"
   xmlns:xlink="http://www.w3.org/1999/xlink"
   version="1.1"
   width="64"
   height="22"
   id="svg3273">
  <defs
     id="defs3275">
    <linearGradient
       id="linearGradient3880">
      <stop
         id="stop3882"
         style="stop-color:#ffffff;stop-opacity:1"
         offset="0" />
      <stop
         id="stop3884"
         style="stop-color:#ffffff;stop-opacity:0"
         offset="1" />
    </linearGradient>
    <linearGradient
       id="linearGradient3766">
      <stop
         id="stop3768"
         style="stop-color:#bfbfbf;stop-opacity:1"
         offset="0" />
      <stop
         id="stop3770"
         style="stop-color:#e8e8e8;stop-opacity:1"
         offset="1" />
    </linearGradient>
    <linearGradient
       x1="-813.23187"
       y1="93.164421"
       x2="-813.5202"
       y2="74.566032"
       id="linearGradient3772"
       xlink:href="#linearGradient3766"
       gradientUnits="userSpaceOnUse"
       gradientTransform="matrix(0.94596395,0,0,0.93645942,-43.045188,4.723272)" />
    <linearGradient
       x1="21.198112"
       y1="19.371967"
       x2="20.985176"
       y2="0.95259303"
       id="linearGradient3820"
       xlink:href="#linearGradient3766"
       gradientUnits="userSpaceOnUse"
       gradientTransform="matrix(1,0,0,0.92805755,0.53908356,1.1871473)" />
    <linearGradient
       x1="26.993261"
       y1="10.611859"
       x2="13.573928"
       y2="10.477089"
       id="linearGradient3886"
       xlink:href="#linearGradient3880"
       gradientUnits="userSpaceOnUse"
       gradientTransform="matrix(1.0520932,0,0,0.96891901,5.9542997,-0.56749276)" />
  </defs>
  <metadata
     id="metadata3278">
    <rdf:RDF>
      <cc:Work
         rdf:about="">
        <dc:format>image/svg+xml</dc:format>
        <dc:type
           rdf:resource="http://purl.org/dc/dcmitype/StillImage" />
        <dc:title></dc:title>
      </cc:Work>
    </rdf:RDF>
  </metadata>
  <path
     d="m 26.968909,2.7325878 10.492575,8.2454592 -9.925407,8.860793 -8.932868,-0.246132 0,-16.7370536 z"
     id="path3972"
     style="fill:#0e0e0e;fill-opacity:0.34946235;stroke:none" />
  <g
     transform="translate(-343,-521.36218)"
     id="layer1">
    <g
       transform="translate(-453,448.36218)"
       id="g17454"
       style="display:inline">
      <rect
         width="63.000004"
         height="19"
         rx="4"
         ry="4"
         x="-859.5"
         y="74.5"
         transform="scale(-1,1)"
         id="rect17456"
         style="color:#000000;fill:#bababa;fill-opacity:0.25268818;stroke:#bcbcbc;stroke-width:0.99999994;stroke-linecap:round;stroke-linejoin:miter;stroke-miterlimit:4;stroke-opacity:0.77956986;stroke-dasharray:none;stroke-dashoffset:0;marker:none;visibility:visible;display:inline;overflow:visible;enable-background:accumulate" />
      <rect
         width="23.970369"
         height="18.098152"
         rx="3.7838559"
         ry="3.7458377"
         x="-820.94879"
         y="74.652306"
         transform="scale(-1,1)"
         id="rect17458"
         style="fill:url(#linearGradient3772);fill-opacity:1;stroke:#848484;stroke-width:1.88239944;stroke-linecap:round;stroke-linejoin:miter;stroke-miterlimit:4;stroke-opacity:0.12903227;stroke-dasharray:none;stroke-dashoffset:0;display:inline" />
      <g
         transform="translate(2.2911051,-0.13477089)"
         id="text3892"
         style="font-size:10px;font-style:normal;font-variant:normal;font-weight:bold;font-stretch:normal;line-height:125%;letter-spacing:0px;word-spacing:0px;fill:#e4e4e4;fill-opacity:0.71505372;stroke:none;font-family:Sans;-inkscape-font-specification:Sans Bold">
        <path
           d="m 837.37109,81.743095 c -0.57292,6e-6 -1.01725,0.211595 -1.333,0.634766 -0.31576,0.423182 -0.47364,1.018885 -0.47364,1.787109 0,0.764977 0.15788,1.359052 0.47364,1.782227 0.31575,0.423178 0.76008,0.634767 1.333,0.634766 0.57617,10e-7 1.02213,-0.211588 1.33789,-0.634766 0.31575,-0.423175 0.47363,-1.01725 0.47364,-1.782227 -1e-5,-0.768224 -0.15789,-1.363927 -0.47364,-1.787109 -0.31576,-0.423171 -0.76172,-0.63476 -1.33789,-0.634766 m 0,-1.362304 c 1.17187,7e-6 2.08984,0.335293 2.75391,1.005859 0.66405,0.670579 0.99609,1.596685 0.99609,2.77832 0,1.178388 -0.33204,2.102867 -0.99609,2.773438 -0.66407,0.670573 -1.58204,1.005859 -2.75391,1.005859 -1.16862,0 -2.08659,-0.335286 -2.7539,-1.005859 -0.66407,-0.670571 -0.9961,-1.59505 -0.9961,-2.773438 0,-1.181635 0.33203,-2.107741 0.9961,-2.77832 0.66731,-0.670566 1.58528,-1.005852 2.7539,-1.005859"
           id="path3954"
           style="fill:#e4e4e4;fill-opacity:0.71505372" />
        <path
           d="m 842.53711,80.512627 5.07324,0 0,1.420898 -3.19336,0 0,1.357422 3.00293,0 0,1.420898 -3.00293,0 0,3.090821 -1.87988,0 0,-7.290039"
           id="path3956"
           style="fill:#e4e4e4;fill-opacity:0.71505372" />
        <path
           d="m 849.37305,80.512627 5.07324,0 0,1.420898 -3.19336,0 0,1.357422 3.00293,0 0,1.420898 -3.00293,0 0,3.090821 -1.87988,0 0,-7.290039"
           id="path3958"
           style="fill:#e4e4e4;fill-opacity:0.71505372" />
      </g>
    </g>
  </g>
  <path
     d="m 25.202156,2.5929919 9.973046,8.3800341 -9.433961,9.00541 -8.490567,-0.250149 0,-17.0102199 z"
     id="path3812"
     style="fill:url(#linearGradient3820);fill-opacity:1;stroke:none" />
  <path
     d="m 24.812574,2.5978169 10.492575,8.2454591 -9.925407,8.860793 -8.932868,-0.246132 0,-16.7370535 z"
     id="path3876"
     style="fill:none;stroke:url(#linearGradient3886);stroke-width:1.00964999;stroke-opacity:1" />
</svg>
